<svg width="20" height="20" viewBox="0 0 20 20" fill="none" xmlns="http://www.w3.org/2000/svg">
<g id="Group">
<path id="Vector" d="M19.1433 19.4334L19.1526 12.4557C19.1526 9.03917 18.4435 6.41406 14.5807 6.41406C12.724 6.41406 11.483 7.46603 10.9698 8.46975H10.9139V6.7229H7.25635V19.4238H11.0632V13.1409C11.0632 11.4809 11.3711 9.87881 13.3491 9.87881C15.2992 9.87881 15.3365 11.7704 15.3365 13.2471V19.4334H19.1433Z" fill="#C8F3F9"/>
<path id="Vector_2" d="M4.87717 6.72266H1.06104V19.4235H4.87717V6.72266Z" fill="#C8F3F9"/>
<path id="Vector_3" d="M2.96448 0.401367C1.74219 0.401367 0.753174 1.42439 0.753174 2.68868C0.753174 3.95298 1.74219 4.9953 2.96448 4.9953C4.18676 4.9953 5.17578 3.95298 5.17578 2.68868C5.17578 1.42439 4.18676 0.401367 2.96448 0.401367Z" fill="#C8F3F9"/>
</g>
</svg>
