<svg width="164" height="34" viewBox="0 0 164 34" fill="none" xmlns="http://www.w3.org/2000/svg">
<g id="Group 25">
<g id="Group">
<g id="Group_2">
<path id="Vector" d="M22.5507 33.7251C18.8238 33.7251 15.0593 33.7251 11.3324 33.7251C7.60552 33.7251 3.80335 33.7251 0.0388184 33.7251V0.154297H10.7677V9.09585C12.7253 9.09585 14.7205 9.09585 16.678 9.09585C18.6356 9.09585 20.6308 9.09585 22.5884 9.09585C24.2071 9.09585 25.1859 9.61478 25.1859 9.61478C25.5623 9.77445 25.9388 9.97404 26.2399 10.2135C26.5411 10.4531 26.8799 10.7325 27.1434 11.0518C27.6705 11.6905 28.0846 12.4889 28.3857 13.407C28.461 13.8461 28.574 14.2852 28.6492 14.8041C28.7245 15.323 28.7622 15.8419 28.7622 16.4008V26.5798C28.7622 27.1786 28.7245 27.7374 28.6492 28.2164C28.574 28.6954 28.461 29.1744 28.3104 29.5736C28.1222 30.0925 27.934 30.5716 27.6705 31.0107C27.4069 31.4497 27.1434 31.7691 26.8046 32.0485C26.5411 32.3679 26.2023 32.6074 25.8635 32.8469C25.5247 33.0864 25.1859 33.2061 24.8471 33.3259C24.8471 33.3259 23.6801 33.7251 22.5507 33.7251ZM16.7157 13.9259H12.0477C11.8594 13.9259 11.7089 13.9658 11.5583 14.0856C11.4077 14.2053 11.2571 14.3251 11.1442 14.4847C10.956 14.6444 10.843 14.8041 10.7677 15.0037C10.6924 15.2033 10.6548 15.4028 10.6548 15.6024V27.3781C10.6548 27.5777 10.6924 27.7374 10.8054 27.8971C10.9183 28.0567 10.9936 28.2164 11.1065 28.3362C11.2571 28.4958 11.4077 28.6156 11.5583 28.6954C11.7089 28.7753 11.8971 28.895 12.0853 28.895H16.7533C16.9039 28.895 17.0545 28.8551 17.2051 28.7353C17.3557 28.6156 17.5062 28.5358 17.6192 28.3761C17.7321 28.2164 17.845 28.0567 17.9203 27.8971C17.9956 27.7374 18.0333 27.5378 18.0333 27.3781V15.5625C18.0333 15.4028 17.9956 15.2432 17.9203 15.0436C17.845 14.844 17.7698 14.6444 17.6192 14.5247C17.4686 14.4049 17.3557 14.2452 17.2051 14.1255C17.0545 14.0057 16.9039 13.9259 16.7157 13.9259Z" fill="#021112"/>
<path id="Vector_2" d="M32.1128 9.0957H41.8629V10.892C41.9759 10.6525 42.1264 10.413 42.277 10.1735C42.4276 9.93397 42.6158 9.7743 42.7664 9.61463C42.9546 9.45496 43.1805 9.33521 43.3687 9.25537C43.557 9.17554 43.7828 9.0957 44.0463 9.0957H54.3988C54.8882 9.0957 55.3399 9.17554 55.7164 9.37513C56.0928 9.57471 56.394 9.81422 56.6199 10.0936C56.8081 10.2932 56.9963 10.5327 57.1093 10.7722C57.2222 11.0118 57.3351 11.2113 57.4104 11.4109C57.4857 11.6105 57.5234 11.7303 57.561 11.8101C57.5987 11.8899 57.561 11.8899 57.5234 11.7702C57.5987 11.4508 57.6739 11.1315 57.7492 10.8521C57.8245 10.5727 57.9751 10.2932 58.1257 10.0537C58.2763 9.73439 58.4645 9.49488 58.6904 9.33521C58.9162 9.17554 59.2174 9.0957 59.5186 9.0957H68.0264C68.6287 9.0957 69.1934 9.17554 69.6828 9.29529C70.1722 9.41504 70.5863 9.61463 71.0004 9.89406C71.4145 10.1735 71.7156 10.4529 72.0168 10.7722C72.318 11.0916 72.5438 11.4908 72.7697 11.8899C72.9579 12.2492 73.1085 12.6085 73.2215 13.0076C73.3344 13.4068 73.4473 13.806 73.5226 14.2052C73.5979 14.7241 73.6732 15.243 73.7108 15.762C73.7485 16.2809 73.7861 16.7599 73.7861 17.2389V33.685H64.036V15.2829C64.036 15.0834 63.9984 14.8838 63.9231 14.7241C63.8478 14.5644 63.7725 14.4447 63.6972 14.285C63.5843 14.2052 63.4713 14.1253 63.3207 14.0455C63.1702 13.9657 63.0572 13.9657 62.9066 13.9657H58.841C58.6904 13.9657 58.5774 14.0056 58.4269 14.0854C58.2763 14.1652 58.201 14.2451 58.1257 14.3249C58.0504 14.4447 57.9751 14.6043 57.8998 14.764C57.8245 14.9237 57.8245 15.0434 57.8245 15.2031V33.685H48.0368V15.3628C48.0368 15.2031 47.9991 15.0434 47.9615 14.8438C47.9238 14.6443 47.8485 14.4846 47.7732 14.3648C47.6603 14.2052 47.5097 14.0854 47.3591 14.0056C47.2086 13.9257 46.9827 13.8459 46.7568 13.8459H42.8793C42.7288 13.8459 42.5782 13.8858 42.4652 14.0056C42.3523 14.1253 42.2394 14.2451 42.1264 14.4048C42.0135 14.5644 41.9759 14.7241 41.9006 14.8838C41.8253 15.0434 41.8253 15.2031 41.8253 15.3628V33.685H32.1128V9.0957Z" fill="#021112"/>
<path id="Vector_3" d="M105.86 17.5569V33.6437H96.4107L95.733 31.0092C95.6954 31.2087 95.6578 31.3684 95.5825 31.4882C95.5072 31.6079 95.4319 31.7676 95.3942 31.8873C95.3189 32.0869 95.2437 32.2466 95.0931 32.4063C94.9425 32.5659 94.8672 32.6857 94.7543 32.8055C94.4155 33.0849 94.0766 33.3244 93.7378 33.4441C93.3614 33.5639 92.9473 33.6437 92.5332 33.6437H82.7078C82.1807 33.6437 81.6913 33.6038 81.2772 33.4841C80.8632 33.3643 80.4491 33.2445 80.1102 33.045C79.7338 32.8454 79.395 32.6059 79.1315 32.3264C78.868 32.047 78.6044 31.6878 78.4162 31.3285C78.1903 30.9293 78.0021 30.4503 77.8515 29.9314C77.7009 29.4125 77.6257 28.8935 77.5504 28.4145C77.4751 27.8956 77.4374 27.3367 77.4374 26.8178C77.4374 26.2989 77.3998 25.7799 77.3998 25.3009C77.3998 24.8618 77.3998 24.3828 77.3998 23.9038C77.3998 23.4248 77.4374 22.9059 77.4751 22.3869C77.5127 21.868 77.6257 21.389 77.7009 20.91C77.7762 20.431 77.9268 19.9919 78.115 19.5927C78.3033 19.1536 78.5668 18.7544 78.9056 18.3952C79.2444 18.0359 79.5832 17.7565 80.035 17.517C80.3738 17.3174 80.7879 17.1976 81.2396 17.0779C81.6913 16.9581 82.1807 16.9182 82.7078 16.9182H93.6626C93.8508 16.9182 94.0767 16.8384 94.2649 16.7186C94.4531 16.5989 94.679 16.4392 94.8296 16.1997C94.9425 16.08 95.0554 15.9203 95.1307 15.7207C95.206 15.5211 95.2437 15.3614 95.2437 15.2018C95.2437 15.0022 95.206 14.8425 95.0931 14.6429C94.9801 14.4433 94.9048 14.2837 94.7543 14.1639C94.6037 14.0042 94.4531 13.8845 94.2649 13.8046C94.0767 13.7248 93.9261 13.645 93.7378 13.645H79.1691V8.97461H99.4599C100.062 8.97461 100.589 9.01453 101.079 9.13428C101.568 9.25403 102.02 9.4137 102.434 9.61329C102.923 9.81288 103.3 10.1322 103.639 10.4516C103.977 10.7709 104.279 11.1701 104.504 11.5693C104.73 11.9285 104.956 12.3277 105.107 12.7668C105.257 13.2059 105.408 13.6051 105.483 14.0442C105.634 14.6429 105.709 15.2417 105.784 15.8404C105.86 16.4392 105.86 17.038 105.86 17.5569ZM95.206 21.8281H90.011C89.7851 21.8281 89.5592 21.9079 89.3333 22.0277C89.1075 22.1474 88.9192 22.3071 88.731 22.5067C88.5804 22.7063 88.4675 22.9059 88.3169 23.1454C88.1663 23.3849 88.1287 23.5446 88.1287 23.7841V27.2968C88.1287 27.4565 88.1663 27.6162 88.2416 27.7758C88.3169 27.9355 88.3922 28.0952 88.5051 28.2548C88.6557 28.4145 88.844 28.5343 89.0322 28.6939C89.2204 28.8536 89.4463 28.8935 89.5969 28.8935H93.8508C94.0014 28.8935 94.1519 28.8536 94.3402 28.7339C94.5284 28.6141 94.679 28.4943 94.8296 28.3347C94.9425 28.2149 95.0554 28.0553 95.1307 27.8956C95.206 27.7359 95.2437 27.5762 95.2437 27.4166V21.8281H95.206Z" fill="#021112"/>
<path id="Vector_4" d="M120.505 33.7249H109.738V9.0957H120.505V11.2912C120.655 11.0517 120.843 10.8122 121.069 10.5727C121.145 10.4529 121.258 10.3332 121.408 10.2134C121.559 10.0936 121.672 10.0138 121.785 9.97389C121.973 9.85414 122.123 9.73439 122.312 9.61463C122.5 9.49488 122.65 9.41504 122.839 9.37513C123.027 9.29529 123.253 9.25537 123.441 9.21546C123.629 9.17554 123.817 9.13562 124.006 9.13562H130.405V15.9615H124.759C124.194 15.9615 123.667 16.0414 123.215 16.1611C122.726 16.2809 122.274 16.4406 121.935 16.6801C121.747 16.7599 121.559 16.8796 121.408 17.0393C121.258 17.199 121.145 17.3587 120.994 17.5183C120.806 17.7179 120.693 17.9175 120.618 18.157C120.542 18.3965 120.505 18.636 120.505 18.9154V33.7249Z" fill="#021112"/>
<path id="Vector_5" d="M144.182 17.6386L153.405 9.13614H160.181L153.819 15.044L163.719 33.7653H150.958L145.913 22.2291L144.144 24.0653V33.8452L133.453 33.8053V0.274414H144.144V17.6386H144.182Z" fill="#021112"/>
</g>
</g>
</g>
</svg>
