<svg width="41" height="42" viewBox="0 0 41 42" fill="none" xmlns="http://www.w3.org/2000/svg">
<path d="M14.6239 22.645L10.4153 26.0656V12.3835C10.4153 12.1567 10.5049 11.9392 10.6644 11.7788C10.8239 11.6184 11.0403 11.5283 11.2659 11.5283H24.8753C25.1009 11.5283 25.3172 11.6184 25.4767 11.7788C25.6363 11.9392 25.7259 12.1567 25.7259 12.3835V21.7899C25.7259 22.0167 25.6363 22.2342 25.4767 22.3946C25.3172 22.5549 25.1009 22.645 24.8753 22.645H14.6239Z" stroke="#CCCFD0" stroke-width="1.7" stroke-linecap="round" stroke-linejoin="round"/>
<path d="M15.519 22.6451V26.9208C15.519 27.1475 15.6087 27.3651 15.7682 27.5254C15.9277 27.6858 16.144 27.7759 16.3696 27.7759H26.621L30.8296 31.1964V17.5143C30.8296 17.2875 30.74 17.07 30.5805 16.9096C30.421 16.7493 30.2046 16.6592 29.979 16.6592H25.7261" stroke="#CCCFD0" stroke-width="1.7" stroke-linecap="round" stroke-linejoin="round"/>
</svg>
