<svg width="42" height="42" viewBox="0 0 42 42" fill="none" xmlns="http://www.w3.org/2000/svg">
<path d="M10.7002 18.3701H15.8037V29.4868H10.7002C10.4746 29.4868 10.2583 29.3967 10.0987 29.2364C9.93922 29.076 9.84961 28.8585 9.84961 28.6317V19.2252C9.84961 18.9985 9.93922 18.7809 10.0987 18.6206C10.2583 18.4602 10.4746 18.3701 10.7002 18.3701V18.3701Z" stroke="#CCCFD0" stroke-width="1.7" stroke-linecap="round" stroke-linejoin="round"/>
<path d="M15.804 18.3697L20.0569 9.81836C20.5037 9.81836 20.9461 9.90683 21.3589 10.0787C21.7717 10.2506 22.1468 10.5026 22.4627 10.8202C22.7787 11.1378 23.0293 11.5149 23.2003 11.9299C23.3712 12.3449 23.4592 12.7897 23.4592 13.2389V15.8043H30.0381C30.2793 15.8043 30.5177 15.8558 30.7376 15.9556C30.9575 16.0553 31.1538 16.2009 31.3134 16.3827C31.473 16.5645 31.5924 16.7783 31.6635 17.0101C31.7347 17.2418 31.756 17.486 31.7261 17.7267L30.4502 27.9882C30.3988 28.4019 30.1989 28.7824 29.888 29.0583C29.5772 29.3341 29.1768 29.4864 28.7622 29.4864H15.804" stroke="#CCCFD0" stroke-width="1.7" stroke-linecap="round" stroke-linejoin="round"/>
</svg>
